<mxfile host="app.diagrams.net" modified="2023-11-16T05:01:02.941Z" agent="Mozilla/5.0 (Macintosh; Intel Mac OS X 10_15_7) AppleWebKit/537.36 (KHTML, like Gecko) Chrome/119.0.0.0 Safari/537.36" etag="aKgTxPX7v6Xyn_NwSoPg" version="22.1.2" type="device">
  <diagram id="R2lEEEUBdFMjLlhIrx00" name="Page-1">
    <mxGraphModel dx="1194" dy="660" grid="1" gridSize="10" guides="1" tooltips="1" connect="1" arrows="1" fold="1" page="1" pageScale="1" pageWidth="850" pageHeight="1100" math="0" shadow="0" extFonts="Permanent Marker^https://fonts.googleapis.com/css?family=Permanent+Marker">
      <root>
        <mxCell id="0" />
        <mxCell id="1" parent="0" />
        <mxCell id="g-Wtju5NSsTcF-88Mxho-31" value="&lt;b&gt;event&lt;/b&gt;" style="swimlane;childLayout=stackLayout;horizontal=1;startSize=50;horizontalStack=0;rounded=1;fontSize=14;fontStyle=0;strokeWidth=2;resizeParent=0;resizeLast=1;shadow=0;dashed=0;align=center;arcSize=4;whiteSpace=wrap;html=1;" vertex="1" parent="1">
          <mxGeometry x="300" y="20" width="180" height="160" as="geometry" />
        </mxCell>
        <mxCell id="g-Wtju5NSsTcF-88Mxho-32" value="&lt;b&gt;+eventid (PK)&lt;br&gt;+venueid (FK)&lt;br&gt;+catid (FK)&lt;br&gt;+dateid (FK)&lt;/b&gt;&lt;br&gt;+eventname&lt;br&gt;+starttime" style="align=left;strokeColor=none;fillColor=none;spacingLeft=4;fontSize=12;verticalAlign=top;resizable=0;rotatable=0;part=1;html=1;" vertex="1" parent="g-Wtju5NSsTcF-88Mxho-31">
          <mxGeometry y="50" width="180" height="110" as="geometry" />
        </mxCell>
        <mxCell id="g-Wtju5NSsTcF-88Mxho-33" value="&lt;b&gt;category&lt;/b&gt;" style="swimlane;childLayout=stackLayout;horizontal=1;startSize=50;horizontalStack=0;rounded=1;fontSize=14;fontStyle=0;strokeWidth=2;resizeParent=0;resizeLast=1;shadow=0;dashed=0;align=center;arcSize=4;whiteSpace=wrap;html=1;" vertex="1" parent="1">
          <mxGeometry x="20" y="40" width="150" height="120" as="geometry" />
        </mxCell>
        <mxCell id="g-Wtju5NSsTcF-88Mxho-34" value="&lt;b&gt;+catid (PK)&lt;/b&gt;&lt;br&gt;+catgroup&lt;br&gt;+catname&lt;br&gt;+catdesc" style="align=left;strokeColor=none;fillColor=none;spacingLeft=4;fontSize=12;verticalAlign=top;resizable=0;rotatable=0;part=1;html=1;" vertex="1" parent="g-Wtju5NSsTcF-88Mxho-33">
          <mxGeometry y="50" width="150" height="70" as="geometry" />
        </mxCell>
        <mxCell id="g-Wtju5NSsTcF-88Mxho-51" style="edgeStyle=orthogonalEdgeStyle;rounded=0;orthogonalLoop=1;jettySize=auto;html=1;exitX=0;exitY=0.75;exitDx=0;exitDy=0;entryX=1;entryY=0.5;entryDx=0;entryDy=0;" edge="1" parent="1" source="g-Wtju5NSsTcF-88Mxho-35" target="g-Wtju5NSsTcF-88Mxho-44">
          <mxGeometry relative="1" as="geometry" />
        </mxCell>
        <mxCell id="g-Wtju5NSsTcF-88Mxho-35" value="&lt;b&gt;listing&lt;/b&gt;" style="swimlane;childLayout=stackLayout;horizontal=1;startSize=50;horizontalStack=0;rounded=1;fontSize=14;fontStyle=0;strokeWidth=2;resizeParent=0;resizeLast=1;shadow=0;dashed=0;align=center;arcSize=4;whiteSpace=wrap;html=1;" vertex="1" parent="1">
          <mxGeometry x="610" y="340" width="200" height="180" as="geometry" />
        </mxCell>
        <mxCell id="g-Wtju5NSsTcF-88Mxho-36" value="&lt;b&gt;+listid (PK)&lt;br&gt;+sellerid (FK)&lt;br&gt;+eventid (FK)&lt;br&gt;+dateid (FK)&lt;/b&gt;&lt;br&gt;+numtickets&lt;br&gt;+priceperticket&lt;br&gt;+totalprice&lt;br&gt;+listtime" style="align=left;strokeColor=none;fillColor=none;spacingLeft=4;fontSize=12;verticalAlign=top;resizable=0;rotatable=0;part=1;html=1;" vertex="1" parent="g-Wtju5NSsTcF-88Mxho-35">
          <mxGeometry y="50" width="200" height="130" as="geometry" />
        </mxCell>
        <mxCell id="g-Wtju5NSsTcF-88Mxho-48" style="edgeStyle=orthogonalEdgeStyle;rounded=0;orthogonalLoop=1;jettySize=auto;html=1;" edge="1" parent="1" source="g-Wtju5NSsTcF-88Mxho-37" target="g-Wtju5NSsTcF-88Mxho-32">
          <mxGeometry relative="1" as="geometry" />
        </mxCell>
        <mxCell id="g-Wtju5NSsTcF-88Mxho-37" value="&lt;b&gt;date&lt;/b&gt;" style="swimlane;childLayout=stackLayout;horizontal=1;startSize=50;horizontalStack=0;rounded=1;fontSize=14;fontStyle=0;strokeWidth=2;resizeParent=0;resizeLast=1;shadow=0;dashed=0;align=center;arcSize=4;whiteSpace=wrap;html=1;" vertex="1" parent="1">
          <mxGeometry x="325" y="280" width="190" height="180" as="geometry" />
        </mxCell>
        <mxCell id="g-Wtju5NSsTcF-88Mxho-38" value="&lt;b&gt;+dateid (PK)&lt;/b&gt;&lt;br&gt;+caldate&lt;br&gt;+day&lt;br&gt;+week&lt;br&gt;+month&lt;br&gt;+quarter&lt;br&gt;+year&lt;br&gt;+holiday" style="align=left;strokeColor=none;fillColor=none;spacingLeft=4;fontSize=12;verticalAlign=top;resizable=0;rotatable=0;part=1;html=1;" vertex="1" parent="g-Wtju5NSsTcF-88Mxho-37">
          <mxGeometry y="50" width="190" height="130" as="geometry" />
        </mxCell>
        <mxCell id="g-Wtju5NSsTcF-88Mxho-39" value="&lt;b&gt;users&lt;/b&gt;" style="swimlane;childLayout=stackLayout;horizontal=1;startSize=50;horizontalStack=0;rounded=1;fontSize=14;fontStyle=0;strokeWidth=2;resizeParent=0;resizeLast=1;shadow=0;dashed=0;align=center;arcSize=4;whiteSpace=wrap;html=1;" vertex="1" parent="1">
          <mxGeometry x="325" y="560" width="200" height="320" as="geometry" />
        </mxCell>
        <mxCell id="g-Wtju5NSsTcF-88Mxho-40" value="&lt;b&gt;+userid (PK)&lt;/b&gt;&lt;br&gt;+username&lt;br&gt;+firstname&lt;br&gt;+lastname&lt;br&gt;+city&lt;br&gt;+state&lt;br&gt;+email&lt;br&gt;+phone&lt;br&gt;+likesports&lt;br&gt;+liketheatre&lt;br&gt;+likeconcerts&lt;br&gt;+likejazz&lt;br&gt;+likeclassical&lt;br&gt;+likeopera&lt;br&gt;+likerock&lt;br&gt;+likevegas&lt;br&gt;+likebroadway&lt;br&gt;+likemusicals" style="align=left;strokeColor=none;fillColor=none;spacingLeft=4;fontSize=12;verticalAlign=top;resizable=0;rotatable=0;part=1;html=1;" vertex="1" parent="g-Wtju5NSsTcF-88Mxho-39">
          <mxGeometry y="50" width="200" height="270" as="geometry" />
        </mxCell>
        <mxCell id="g-Wtju5NSsTcF-88Mxho-58" style="edgeStyle=orthogonalEdgeStyle;rounded=0;orthogonalLoop=1;jettySize=auto;html=1;exitX=0;exitY=0.5;exitDx=0;exitDy=0;entryX=1;entryY=0.5;entryDx=0;entryDy=0;" edge="1" parent="1" source="g-Wtju5NSsTcF-88Mxho-41" target="g-Wtju5NSsTcF-88Mxho-32">
          <mxGeometry relative="1" as="geometry" />
        </mxCell>
        <mxCell id="g-Wtju5NSsTcF-88Mxho-41" value="&lt;b&gt;venue&lt;/b&gt;" style="swimlane;childLayout=stackLayout;horizontal=1;startSize=50;horizontalStack=0;rounded=1;fontSize=14;fontStyle=0;strokeWidth=2;resizeParent=0;resizeLast=1;shadow=0;dashed=0;align=center;arcSize=4;whiteSpace=wrap;html=1;" vertex="1" parent="1">
          <mxGeometry x="610" y="30" width="180" height="140" as="geometry" />
        </mxCell>
        <mxCell id="g-Wtju5NSsTcF-88Mxho-42" value="&lt;b&gt;+venueid (PK)&lt;/b&gt;&lt;br&gt;+venuename&lt;br&gt;+venuecity&lt;br&gt;+venuestate&lt;br&gt;+venueseats" style="align=left;strokeColor=none;fillColor=none;spacingLeft=4;fontSize=12;verticalAlign=top;resizable=0;rotatable=0;part=1;html=1;" vertex="1" parent="g-Wtju5NSsTcF-88Mxho-41">
          <mxGeometry y="50" width="180" height="90" as="geometry" />
        </mxCell>
        <mxCell id="g-Wtju5NSsTcF-88Mxho-43" value="&lt;b&gt;sales&lt;/b&gt;" style="swimlane;childLayout=stackLayout;horizontal=1;startSize=50;horizontalStack=0;rounded=1;fontSize=14;fontStyle=0;strokeWidth=2;resizeParent=0;resizeLast=1;shadow=0;dashed=0;align=center;arcSize=4;whiteSpace=wrap;html=1;" vertex="1" parent="1">
          <mxGeometry x="30" y="360" width="230" height="220" as="geometry" />
        </mxCell>
        <mxCell id="g-Wtju5NSsTcF-88Mxho-44" value="&lt;b&gt;+salesid (PK)&lt;/b&gt;&lt;br&gt;&lt;b&gt;+listid (FK)&lt;/b&gt;&lt;br&gt;&lt;b&gt;+sellerid (FK)&lt;/b&gt;&lt;br&gt;&lt;b&gt;+buyerid (FK)&lt;/b&gt;&lt;br&gt;&lt;b&gt;+eventid (FK)&lt;/b&gt;&lt;br&gt;&lt;b&gt;+dateid (FK)&lt;/b&gt;&lt;br&gt;+qtysold&lt;br&gt;+pricepaid&lt;br&gt;+commission&lt;br&gt;+saletime" style="align=left;strokeColor=none;fillColor=none;spacingLeft=4;fontSize=12;verticalAlign=top;resizable=0;rotatable=0;part=1;html=1;" vertex="1" parent="g-Wtju5NSsTcF-88Mxho-43">
          <mxGeometry y="50" width="230" height="170" as="geometry" />
        </mxCell>
        <mxCell id="g-Wtju5NSsTcF-88Mxho-46" style="edgeStyle=orthogonalEdgeStyle;rounded=0;orthogonalLoop=1;jettySize=auto;html=1;exitX=1;exitY=0;exitDx=0;exitDy=0;entryX=-0.017;entryY=0.409;entryDx=0;entryDy=0;entryPerimeter=0;" edge="1" parent="1" source="g-Wtju5NSsTcF-88Mxho-34" target="g-Wtju5NSsTcF-88Mxho-32">
          <mxGeometry relative="1" as="geometry" />
        </mxCell>
        <mxCell id="g-Wtju5NSsTcF-88Mxho-49" style="edgeStyle=orthogonalEdgeStyle;rounded=0;orthogonalLoop=1;jettySize=auto;html=1;exitX=1;exitY=0.25;exitDx=0;exitDy=0;entryX=-0.015;entryY=0.446;entryDx=0;entryDy=0;entryPerimeter=0;" edge="1" parent="1" source="g-Wtju5NSsTcF-88Mxho-38" target="g-Wtju5NSsTcF-88Mxho-36">
          <mxGeometry relative="1" as="geometry" />
        </mxCell>
        <mxCell id="g-Wtju5NSsTcF-88Mxho-50" style="edgeStyle=orthogonalEdgeStyle;rounded=0;orthogonalLoop=1;jettySize=auto;html=1;exitX=0;exitY=0;exitDx=0;exitDy=0;entryX=0.991;entryY=0.141;entryDx=0;entryDy=0;entryPerimeter=0;" edge="1" parent="1" source="g-Wtju5NSsTcF-88Mxho-38" target="g-Wtju5NSsTcF-88Mxho-44">
          <mxGeometry relative="1" as="geometry" />
        </mxCell>
        <mxCell id="g-Wtju5NSsTcF-88Mxho-53" style="edgeStyle=orthogonalEdgeStyle;rounded=0;orthogonalLoop=1;jettySize=auto;html=1;exitX=0;exitY=0;exitDx=0;exitDy=0;entryX=0.404;entryY=1;entryDx=0;entryDy=0;entryPerimeter=0;" edge="1" parent="1" source="g-Wtju5NSsTcF-88Mxho-40" target="g-Wtju5NSsTcF-88Mxho-44">
          <mxGeometry relative="1" as="geometry" />
        </mxCell>
        <mxCell id="g-Wtju5NSsTcF-88Mxho-54" style="edgeStyle=orthogonalEdgeStyle;rounded=0;orthogonalLoop=1;jettySize=auto;html=1;exitX=1;exitY=0;exitDx=0;exitDy=0;entryX=0.59;entryY=1.015;entryDx=0;entryDy=0;entryPerimeter=0;" edge="1" parent="1" source="g-Wtju5NSsTcF-88Mxho-40" target="g-Wtju5NSsTcF-88Mxho-36">
          <mxGeometry relative="1" as="geometry" />
        </mxCell>
        <mxCell id="g-Wtju5NSsTcF-88Mxho-56" style="edgeStyle=orthogonalEdgeStyle;rounded=0;orthogonalLoop=1;jettySize=auto;html=1;exitX=0.75;exitY=1;exitDx=0;exitDy=0;entryX=0.5;entryY=0;entryDx=0;entryDy=0;" edge="1" parent="1" source="g-Wtju5NSsTcF-88Mxho-32" target="g-Wtju5NSsTcF-88Mxho-35">
          <mxGeometry relative="1" as="geometry" />
        </mxCell>
        <mxCell id="g-Wtju5NSsTcF-88Mxho-57" style="edgeStyle=orthogonalEdgeStyle;rounded=0;orthogonalLoop=1;jettySize=auto;html=1;exitX=0.25;exitY=1;exitDx=0;exitDy=0;entryX=0.422;entryY=0.009;entryDx=0;entryDy=0;entryPerimeter=0;" edge="1" parent="1" source="g-Wtju5NSsTcF-88Mxho-32" target="g-Wtju5NSsTcF-88Mxho-43">
          <mxGeometry relative="1" as="geometry" />
        </mxCell>
      </root>
    </mxGraphModel>
  </diagram>
</mxfile>
